<mxfile host="Electron" modified="2025-05-26T14:08:31.385Z" agent="Mozilla/5.0 (Windows NT 10.0; Win64; x64) AppleWebKit/537.36 (KHTML, like Gecko) draw.io/24.6.1 Chrome/124.0.6367.207 Electron/30.0.6 Safari/537.36" etag="SEt4daKrocKVLNaZseq9" version="24.6.1" type="device">
  <diagram name="Página-1" id="Qj0983TWsjiG6K6a-fV5">
    <mxGraphModel dx="712" dy="835" grid="1" gridSize="10" guides="1" tooltips="1" connect="1" arrows="1" fold="1" page="1" pageScale="1" pageWidth="827" pageHeight="1169" math="0" shadow="0">
      <root>
        <mxCell id="0" />
        <mxCell id="1" parent="0" />
        <mxCell id="JZ8E4KbmcqkdvM-NHR9X-13" style="edgeStyle=orthogonalEdgeStyle;rounded=0;orthogonalLoop=1;jettySize=auto;html=1;exitX=1;exitY=0.3333333333333333;exitDx=0;exitDy=0;exitPerimeter=0;entryX=0;entryY=0.5;entryDx=0;entryDy=0;" edge="1" parent="1" source="JZ8E4KbmcqkdvM-NHR9X-1" target="JZ8E4KbmcqkdvM-NHR9X-3">
          <mxGeometry relative="1" as="geometry" />
        </mxCell>
        <mxCell id="JZ8E4KbmcqkdvM-NHR9X-14" style="edgeStyle=orthogonalEdgeStyle;rounded=0;orthogonalLoop=1;jettySize=auto;html=1;exitX=1;exitY=0.3333333333333333;exitDx=0;exitDy=0;exitPerimeter=0;entryX=0;entryY=0.5;entryDx=0;entryDy=0;" edge="1" parent="1" source="JZ8E4KbmcqkdvM-NHR9X-1" target="JZ8E4KbmcqkdvM-NHR9X-4">
          <mxGeometry relative="1" as="geometry" />
        </mxCell>
        <mxCell id="JZ8E4KbmcqkdvM-NHR9X-15" style="edgeStyle=orthogonalEdgeStyle;rounded=0;orthogonalLoop=1;jettySize=auto;html=1;exitX=1;exitY=0.3333333333333333;exitDx=0;exitDy=0;exitPerimeter=0;entryX=0;entryY=0.5;entryDx=0;entryDy=0;" edge="1" parent="1" source="JZ8E4KbmcqkdvM-NHR9X-1" target="JZ8E4KbmcqkdvM-NHR9X-5">
          <mxGeometry relative="1" as="geometry" />
        </mxCell>
        <mxCell id="JZ8E4KbmcqkdvM-NHR9X-1" value="Veterinario" style="shape=umlActor;verticalLabelPosition=bottom;verticalAlign=top;html=1;outlineConnect=0;" vertex="1" parent="1">
          <mxGeometry x="110" y="190" width="30" height="60" as="geometry" />
        </mxCell>
        <mxCell id="JZ8E4KbmcqkdvM-NHR9X-10" style="edgeStyle=orthogonalEdgeStyle;rounded=0;orthogonalLoop=1;jettySize=auto;html=1;exitX=1;exitY=0.3333333333333333;exitDx=0;exitDy=0;exitPerimeter=0;entryX=0;entryY=0.5;entryDx=0;entryDy=0;" edge="1" parent="1" source="JZ8E4KbmcqkdvM-NHR9X-2" target="JZ8E4KbmcqkdvM-NHR9X-6">
          <mxGeometry relative="1" as="geometry" />
        </mxCell>
        <mxCell id="JZ8E4KbmcqkdvM-NHR9X-11" style="edgeStyle=orthogonalEdgeStyle;rounded=0;orthogonalLoop=1;jettySize=auto;html=1;exitX=1;exitY=0.3333333333333333;exitDx=0;exitDy=0;exitPerimeter=0;entryX=0;entryY=0.5;entryDx=0;entryDy=0;" edge="1" parent="1" source="JZ8E4KbmcqkdvM-NHR9X-2" target="JZ8E4KbmcqkdvM-NHR9X-7">
          <mxGeometry relative="1" as="geometry" />
        </mxCell>
        <mxCell id="JZ8E4KbmcqkdvM-NHR9X-12" style="edgeStyle=orthogonalEdgeStyle;rounded=0;orthogonalLoop=1;jettySize=auto;html=1;exitX=1;exitY=0.3333333333333333;exitDx=0;exitDy=0;exitPerimeter=0;entryX=0;entryY=0.5;entryDx=0;entryDy=0;" edge="1" parent="1" source="JZ8E4KbmcqkdvM-NHR9X-2" target="JZ8E4KbmcqkdvM-NHR9X-8">
          <mxGeometry relative="1" as="geometry" />
        </mxCell>
        <mxCell id="JZ8E4KbmcqkdvM-NHR9X-2" value="Administradores" style="shape=umlActor;verticalLabelPosition=bottom;verticalAlign=top;html=1;outlineConnect=0;" vertex="1" parent="1">
          <mxGeometry x="100" y="510" width="30" height="60" as="geometry" />
        </mxCell>
        <mxCell id="JZ8E4KbmcqkdvM-NHR9X-3" value="Gestionar Citas" style="rounded=1;whiteSpace=wrap;html=1;" vertex="1" parent="1">
          <mxGeometry x="250" y="90" width="120" height="60" as="geometry" />
        </mxCell>
        <mxCell id="JZ8E4KbmcqkdvM-NHR9X-4" value="Acceder a historiales medicos" style="rounded=1;whiteSpace=wrap;html=1;" vertex="1" parent="1">
          <mxGeometry x="250" y="160" width="120" height="60" as="geometry" />
        </mxCell>
        <mxCell id="JZ8E4KbmcqkdvM-NHR9X-5" value="Escribir recetas" style="rounded=1;whiteSpace=wrap;html=1;" vertex="1" parent="1">
          <mxGeometry x="250" y="230" width="120" height="60" as="geometry" />
        </mxCell>
        <mxCell id="JZ8E4KbmcqkdvM-NHR9X-6" value="Gestionar el personal" style="rounded=1;whiteSpace=wrap;html=1;" vertex="1" parent="1">
          <mxGeometry x="250" y="440" width="120" height="60" as="geometry" />
        </mxCell>
        <mxCell id="JZ8E4KbmcqkdvM-NHR9X-7" value="Verificar informes médicos" style="rounded=1;whiteSpace=wrap;html=1;" vertex="1" parent="1">
          <mxGeometry x="250" y="525" width="120" height="60" as="geometry" />
        </mxCell>
        <mxCell id="JZ8E4KbmcqkdvM-NHR9X-8" value="Manejar Factruras" style="rounded=1;whiteSpace=wrap;html=1;" vertex="1" parent="1">
          <mxGeometry x="250" y="600" width="120" height="60" as="geometry" />
        </mxCell>
      </root>
    </mxGraphModel>
  </diagram>
</mxfile>
